{"glyphs":{"\u0000":{"ha":0,"x_min":0,"x_max":0,"o":""},"\n":{"ha":0,"x_min":0,"x_max":0,"o":""},"\r":{"ha":0,"x_min":0,"x_max":0,"o":""}," ":{"ha":471,"x_min":0,"x_max":0,"o":""},"\"":{"ha":374,"x_min":0,"x_max":0,"o":"m 278 953 b 259 952 272 953 266 952 b 258 952 259 952 258 952 b 187 926 229 961 203 948 b 129 953 174 943 155 955 b 111 952 123 953 117 952 b 109 952 110 952 109 952 b 21 857 54 969 11 905 b 33 754 29 821 32 793 b 98 680 34 716 61 685 b 181 734 132 675 175 697 b 183 743 182 737 182 740 b 247 680 188 710 213 684 b 330 734 281 675 324 697 b 351 858 337 775 344 816 b 278 953 358 902 331 958 z "},"'":{"ha":224,"x_min":0,"x_max":0,"o":"m 129 953 b 111 952 123 953 117 952 b 109 952 110 952 109 952 b 21 857 54 969 11 905 b 33 754 29 821 32 793 b 98 680 34 716 61 685 b 181 734 132 675 175 697 b 202 858 188 775 195 816 b 129 953 209 902 183 958 z "},"(":{"ha":442,"x_min":0,"x_max":0,"o":"m 424 906 b 281 1048 509 1003 367 1146 b 264 -217 -43 680 -68 156 b 406 -75 350 -314 492 -171 b 424 906 151 213 175 623 z "},")":{"ha":457,"x_min":0,"x_max":0,"o":"m 221 1048 b 78 906 140 1150 -2 1007 b 4 -75 318 604 265 194 b 146 -217 -86 -168 56 -310 b 221 1048 491 138 530 659 z "},"*":{"ha":435,"x_min":0,"x_max":0,"o":"m 339 690 b 392 735 356 705 374 720 b 392 842 423 761 419 815 b 303 854 366 867 332 868 b 304 867 303 858 303 862 b 153 867 308 964 157 964 b 152 849 152 861 152 855 b 150 851 151 850 150 850 b 43 744 76 914 -31 807 b 106 691 64 726 85 709 b 73 662 95 681 84 672 b 73 556 41 636 45 583 b 179 556 103 525 148 529 b 222 592 194 568 208 580 b 263 557 236 580 249 569 b 370 664 337 495 444 601 b 339 690 359 673 349 682 z "},",":{"ha":238,"x_min":0,"x_max":0,"o":"m 186 169 b 31 141 139 216 61 197 b 40 36 11 103 18 64 b 30 22 37 32 33 26 b 30 -85 4 -10 -1 -54 b 136 -85 56 -112 111 -117 b 186 169 188 -21 264 92 z m 66 86 b 66 86 65 91 65 91 z "},".":{"ha":235,"x_min":0,"x_max":0,"o":"m 187 168 b 120 197 169 186 145 194 b 62 181 101 198 77 192 b 45 166 55 177 49 172 b 31 149 39 161 35 155 b 47 25 6 111 15 57 b 186 29 85 -12 150 -11 b 216 99 204 48 216 72 b 187 168 216 125 205 149 z "},":":{"ha":250,"x_min":0,"x_max":0,"o":"m 199 306 b 228 376 217 325 228 349 b 200 445 229 402 218 427 b 132 474 182 464 157 472 b 75 458 114 475 90 470 b 57 443 68 455 62 449 b 44 427 52 438 47 432 b 60 302 19 388 28 334 b 199 306 98 265 163 267 z m 188 151 b 168 167 182 157 175 163 b 146 175 162 171 154 174 b 91 176 128 181 108 182 b 25 106 59 165 33 139 b 25 56 21 89 21 73 b 35 34 27 49 31 40 b 48 17 38 28 44 22 b 51 14 49 16 50 15 b 145 -9 77 -9 111 -18 b 188 17 161 -5 177 5 b 213 71 203 32 211 50 b 210 114 215 85 215 100 b 188 151 204 130 200 139 z "},";":{"ha":253,"x_min":0,"x_max":0,"o":"m 37 141 b 46 36 17 103 23 64 b 35 22 42 31 39 26 b 35 -85 10 -10 4 -54 b 142 -85 62 -112 116 -117 b 192 169 194 -21 270 92 b 37 141 144 216 67 197 z m 72 86 b 72 86 70 91 71 91 z m 201 306 b 230 376 219 325 230 349 b 202 445 231 402 220 427 b 134 474 184 464 159 472 b 77 458 116 475 92 470 b 59 443 70 455 64 449 b 45 427 54 438 49 432 b 62 302 20 388 30 334 b 201 306 100 265 165 267 z "},"A":{"ha":790,"x_min":0,"x_max":0,"o":"m 701 482 b 666 670 691 545 680 607 b 454 977 641 785 608 973 b 223 690 300 981 262 805 b 149 474 198 618 174 546 b 51 303 67 498 -22 385 b 80 274 60 293 70 283 b 2 45 54 197 28 121 b 196 -9 -40 -78 154 -131 b 257 168 216 50 236 109 b 540 165 348 138 447 137 b 549 32 543 121 547 76 b 751 32 557 -97 758 -98 b 729 277 746 114 738 196 b 759 309 740 287 750 298 b 701 482 818 377 767 467 z m 321 359 b 447 724 358 473 385 626 b 465 646 453 698 459 672 b 501 465 479 586 491 526 b 516 372 507 434 512 403 b 321 359 454 342 386 337 z "},"B":{"ha":835,"x_min":0,"x_max":0,"o":"m 706 84 b 704 661 840 241 902 525 b 593 709 667 686 630 701 b 507 936 604 790 579 874 b 133 923 398 1031 231 1023 b 53 832 94 913 58 882 b 32 332 35 665 27 499 b 120 -15 35 215 35 76 b 706 84 285 -190 575 -70 z m 274 781 b 377 783 295 814 352 806 b 354 671 418 745 386 701 b 337 653 347 665 342 659 b 235 580 302 632 267 607 b 247 753 238 637 242 695 b 274 781 257 760 266 769 z m 233 315 b 277 342 249 319 263 327 b 602 487 341 410 492 584 b 439 129 725 379 529 169 b 233 315 272 53 240 187 z "},"C":{"ha":836,"x_min":0,"x_max":0,"o":"m 653 712 b 795 855 737 614 879 757 b 246 929 656 1017 424 1052 b 17 344 64 804 -13 556 b 410 -73 47 137 196 -42 b 819 323 655 -109 814 96 b 618 323 823 452 621 452 b 334 168 614 154 474 74 b 212 466 237 232 204 356 b 653 712 228 687 455 943 z "},"D":{"ha":854,"x_min":0,"x_max":0,"o":"m 206 912 b 31 845 151 967 30 945 b 41 315 31 668 33 492 b 136 11 47 207 52 91 b 675 151 324 -170 552 -23 b 757 853 807 337 935 656 b 206 912 619 1007 388 995 z m 471 215 b 311 137 430 168 377 114 b 243 315 238 162 246 251 b 233 702 237 444 234 573 b 642 611 366 788 637 822 b 471 215 644 475 559 314 z "},"E":{"ha":779,"x_min":0,"x_max":0,"o":"m 598 279 b 272 214 543 155 348 44 b 248 389 250 264 247 327 b 490 387 328 389 409 388 b 490 589 619 386 619 588 b 249 591 410 589 330 590 b 247 742 249 641 248 691 b 578 728 358 737 468 732 b 578 929 708 722 708 923 b 163 947 440 935 302 941 b 135 948 154 948 145 948 b 112 949 128 948 120 949 b 45 777 12 953 -10 833 b 56 262 45 606 39 432 b 231 -34 69 140 121 28 b 772 177 428 -145 686 -17 b 598 279 823 295 650 398 z "},"F":{"ha":767,"x_min":0,"x_max":0,"o":"m 692 940 b 97 963 494 947 295 955 b 97 761 -32 968 -32 766 b 107 761 100 761 104 761 b 106 753 107 758 106 756 b 93 211 101 573 89 391 b 220 -109 96 85 125 -21 b 363 33 315 -197 458 -55 b 293 276 295 97 289 186 b 693 386 431 227 593 262 b 551 529 774 486 632 630 b 301 503 482 443 380 430 b 307 753 303 586 305 669 b 307 753 307 753 307 753 b 692 739 436 748 564 743 b 692 940 822 733 822 935 z "},"G":{"ha":896,"x_min":0,"x_max":0,"o":"m 558 564 b 558 567 558 565 558 566 b 364 567 534 662 387 663 b 356 242 339 466 356 344 b 557 242 356 112 557 112 b 557 320 557 268 557 294 b 660 194 680 311 714 269 b 532 107 628 149 585 119 b 346 144 468 92 400 110 b 218 321 287 182 240 254 b 621 742 136 561 355 880 b 722 916 736 683 838 856 b 212 -6 146 1215 -250 351 b 887 246 455 -193 845 -75 b 558 564 916 469 726 607 z "},"H":{"ha":799,"x_min":0,"x_max":0,"o":"m 718 469 b 735 833 719 590 724 711 b 534 833 747 962 546 961 b 516 407 521 691 515 549 b 258 416 433 391 340 397 b 263 866 260 566 261 716 b 62 866 264 996 63 996 b 57 437 60 723 59 580 b 28 307 21 411 4 362 b 55 257 36 290 45 273 b 54 202 55 238 55 220 b 174 -81 53 96 31 -63 b 351 80 268 -93 344 -11 b 324 203 354 124 343 164 b 522 203 390 195 458 195 b 537 11 526 139 530 75 b 738 11 549 -117 751 -119 b 721 269 730 97 724 183 b 742 282 728 273 735 277 b 718 469 821 336 785 447 z "},"I":{"ha":286,"x_min":0,"x_max":0,"o":"m 55 826 b 28 77 46 577 37 327 b 229 77 23 -53 225 -53 b 256 826 238 327 247 577 b 55 826 261 956 60 956 z "},"J":{"ha":661,"x_min":0,"x_max":0,"o":"m 542 947 b 164 946 416 946 290 946 b 164 744 35 945 35 744 b 407 745 245 745 326 745 b 419 322 413 604 422 462 b 298 152 416 244 400 136 b 236 371 187 169 191 296 b 62 472 302 482 128 584 b 378 -46 -77 239 73 -111 b 614 233 518 -16 596 97 b 608 771 637 407 616 594 b 542 947 665 825 643 947 z "},"K":{"ha":751,"x_min":0,"x_max":0,"o":"m 602 -58 b 704 115 715 -123 816 51 b 471 443 578 188 498 301 b 492 462 478 449 485 455 b 722 835 601 565 675 693 b 528 888 762 958 568 1011 b 350 604 492 779 435 683 b 296 562 333 588 314 574 b 297 897 296 674 296 786 b 95 897 297 1027 96 1027 b 94 432 95 742 94 587 b 107 -14 -51 303 12 124 b 294 37 161 -93 294 -68 b 295 315 294 130 295 223 b 602 -58 345 157 457 25 z "},"L":{"ha":769,"x_min":0,"x_max":0,"o":"m 772 201 b 578 254 810 325 616 378 b 323 139 546 150 426 95 b 236 376 215 184 235 288 b 243 879 238 543 241 711 b 42 879 245 1009 44 1009 b 34 296 39 685 27 489 b 178 -15 39 172 68 56 b 772 201 400 -156 697 -44 z "},"M":{"ha":1269,"x_min":0,"x_max":0,"o":"m 1066 898 b 705 809 915 975 794 914 b 513 940 668 879 605 931 b 229 816 389 952 296 901 b 228 844 229 825 228 835 b 27 844 222 973 21 974 b 59 77 37 588 48 333 b 261 77 65 -52 266 -53 b 298 470 255 210 264 341 b 378 655 315 534 344 598 b 487 746 398 691 439 753 b 552 564 557 737 553 615 b 543 355 550 494 543 425 b 543 77 543 263 543 170 b 744 77 542 -52 744 -52 b 748 386 745 180 751 283 b 845 678 745 486 770 606 b 1027 574 948 777 1019 679 b 1039 67 1041 407 1035 235 b 1241 67 1042 -62 1244 -62 b 1227 595 1237 243 1241 420 b 1066 898 1217 714 1181 839 z "},"N":{"ha":785,"x_min":0,"x_max":0,"o":"m 486 949 b 239 806 381 940 301 886 b 239 829 239 814 239 822 b 38 829 238 959 37 959 b 41 69 39 576 40 322 b 243 69 42 -61 239 -61 b 296 437 246 192 267 318 b 384 638 313 507 346 579 b 530 629 435 717 505 749 b 544 351 549 541 542 442 b 552 50 547 251 549 150 b 753 50 555 -79 756 -80 b 748 444 750 181 751 313 b 523 949 744 617 768 935 b 486 949 510 950 498 950 z "},"O":{"ha":738,"x_min":0,"x_max":0,"o":"m 247 906 b 236 901 243 904 240 903 b 218 890 229 898 224 894 b 127 830 186 873 155 853 b 94 774 106 813 96 794 b 26 300 7 642 6 461 b 512 6 56 63 272 -161 b 697 724 719 150 748 497 b 247 906 641 972 430 992 z m 511 539 b 347 165 512 423 503 170 b 216 464 212 160 215 363 b 338 727 217 575 231 673 b 359 742 346 732 353 737 b 503 670 416 764 473 755 b 511 539 516 633 511 578 z "},"P":{"ha":878,"x_min":0,"x_max":0,"o":"m 230 920 b 145 892 200 922 169 913 b 54 854 113 880 82 867 b 101 671 -45 809 11 680 b 108 47 89 463 92 255 b 310 47 119 -82 320 -83 b 300 214 305 103 302 158 b 856 710 589 167 961 369 b 230 920 766 1001 475 993 z m 334 412 b 295 412 320 415 307 414 b 307 742 295 522 299 632 b 637 699 426 781 560 798 b 334 412 783 509 486 381 z "},"Q":{"ha":801,"x_min":0,"x_max":0,"o":"m 743 -152 b 743 -10 779 -116 785 -45 b 650 68 712 16 681 42 b 742 230 689 115 721 170 b 449 962 830 487 798 933 b 166 789 332 972 200 908 b 159 750 162 776 160 763 b 109 52 -2 556 -57 263 b 488 -58 222 -92 364 -111 b 601 -152 525 -89 563 -121 b 743 -152 642 -187 702 -193 z m 246 519 b 270 408 263 484 274 448 b 471 408 257 279 458 280 b 381 671 483 521 408 572 b 378 688 379 678 379 683 b 396 750 393 708 399 729 b 564 642 440 769 538 708 b 572 367 597 560 589 451 b 504 189 560 313 541 242 b 449 235 486 205 468 220 b 307 235 408 270 348 276 b 278 164 289 217 279 190 b 222 270 252 193 233 232 b 246 519 196 358 210 443 z "},"R":{"ha":904,"x_min":0,"x_max":0,"o":"m 864 752 b 42 877 732 1108 298 1013 b 137 700 -71 817 25 649 b 145 35 156 479 159 257 b 347 35 137 -95 339 -94 b 349 79 348 50 348 64 b 753 -41 465 -5 607 -49 b 753 160 882 -35 883 167 b 545 198 678 156 608 169 b 864 752 773 286 964 484 z m 355 352 b 331 783 354 496 346 639 b 662 706 456 822 591 826 b 355 352 778 508 515 371 z "},"S":{"ha":832,"x_min":0,"x_max":0,"o":"m 687 524 b 334 643 576 600 449 589 b 347 798 244 685 260 758 b 560 752 417 831 505 799 b 703 894 658 668 801 810 b 229 968 569 1008 392 1046 b 81 620 94 903 12 766 b 467 406 157 457 314 455 b 228 354 957 251 75 -166 b 34 407 265 478 71 532 b 257 -86 -24 208 42 -19 b 747 63 425 -138 634 -71 b 687 524 871 210 846 415 z "},"T":{"ha":889,"x_min":0,"x_max":0,"o":"m 553 65 b 548 750 551 293 550 522 b 548 754 548 752 548 753 b 835 784 647 749 745 748 b 782 978 954 832 902 1026 b 33 864 536 880 264 1032 b 134 690 -71 789 29 614 b 348 758 199 737 271 754 b 347 750 348 756 347 753 b 351 65 349 522 350 293 b 553 65 352 -65 554 -65 z "},"U":{"ha":883,"x_min":0,"x_max":0,"o":"m 616 881 b 553 499 602 752 581 625 b 518 359 542 452 531 405 b 471 246 499 295 488 270 b 380 176 450 217 424 180 b 291 213 330 170 293 211 b 261 296 269 238 269 266 b 234 471 247 351 240 416 b 237 832 222 592 226 711 b 36 832 249 960 48 960 b 372 -45 13 589 -19 -65 b 650 137 499 -38 587 34 b 655 10 652 94 654 52 b 857 10 661 -119 863 -120 b 817 881 844 300 830 591 b 616 881 811 1013 630 1008 z "},"V":{"ha":851,"x_min":0,"x_max":0,"o":"m 659 895 b 411 290 587 688 504 487 b 192 908 338 496 265 702 b -2 855 149 1029 -45 977 b 299 4 98 571 199 288 b 483 -20 326 -71 440 -102 b 853 841 626 259 749 546 b 659 895 896 964 702 1016 z "},"W":{"ha":1142,"x_min":0,"x_max":0,"o":"m 1044 916 b 850 862 1009 1040 815 988 b 913 415 878 761 912 665 b 843 181 913 352 913 210 b 702 235 801 164 726 187 b 693 269 697 244 695 253 b 702 419 685 324 694 363 b 708 532 712 485 708 516 b 511 559 713 643 529 672 b 488 336 499 486 488 410 b 485 310 488 327 487 319 b 459 241 479 286 471 263 b 248 285 381 91 284 153 b 295 826 200 464 229 656 b 100 879 341 947 146 999 b 221 -23 5 631 -58 142 b 575 51 343 -95 485 -48 b 577 52 576 51 576 52 b 932 -6 668 -59 809 -90 b 1044 916 1209 183 1119 649 z "},"X":{"ha":831,"x_min":0,"x_max":0,"o":"m 772 137 b 530 378 660 182 587 274 b 767 815 614 520 691 667 b 594 916 827 930 653 1032 b 428 602 540 811 485 706 b 406 653 421 620 414 637 b 94 949 343 801 274 945 b -6 848 39 950 -5 902 b -7 816 -6 837 -7 827 b 138 729 -9 730 78 702 b 268 466 203 675 247 516 b 302 389 279 441 291 415 b 104 111 242 293 177 199 b 247 -32 23 11 165 -132 b 411 191 305 40 360 115 b 718 -58 490 78 589 -5 b 772 137 838 -106 890 88 z "},"Y":{"ha":793,"x_min":0,"x_max":0,"o":"m 783 878 b 581 878 772 1007 571 1008 b 450 426 591 757 585 495 b 238 523 365 382 275 448 b 232 846 188 623 209 742 b 38 900 260 973 66 1027 b 64 421 3 741 -15 571 b 281 232 111 332 189 264 b 274 -11 279 151 277 70 b 476 -11 270 -140 472 -140 b 483 223 478 67 480 145 b 783 878 735 291 801 655 z "},"Z":{"ha":799,"x_min":0,"x_max":0,"o":"m 599 182 b 357 114 533 155 430 99 b 359 324 218 141 304 253 b 590 354 436 322 514 332 b 537 548 715 390 662 584 b 529 546 534 547 532 547 b 680 742 579 611 630 677 b 706 743 689 742 697 742 b 706 944 835 748 835 949 b 101 957 504 936 302 940 b 101 755 -28 968 -28 766 b 426 739 209 746 318 741 b 270 536 374 672 322 604 b 219 549 253 540 236 544 b 139 367 105 582 51 422 b 57 101 80 289 27 203 b 653 -12 131 -158 475 -86 b 599 182 771 37 719 232 z "},"[":{"ha":503,"x_min":0,"x_max":0,"o":"m 324 13 b 241 12 297 12 269 12 b 248 869 243 298 246 583 b 330 869 275 869 303 869 b 431 970 385 870 431 916 b 330 1071 431 1025 385 1071 b 149 1070 270 1071 210 1070 b 50 987 101 1070 59 1033 b 47 962 49 979 47 971 b 39 -86 44 613 42 263 b 78 -164 39 -122 55 -148 b 143 -190 96 -180 118 -190 b 324 -189 204 -189 264 -189 b 425 -88 379 -189 425 -143 b 324 13 425 -34 379 13 z "},"]":{"ha":504,"x_min":0,"x_max":0,"o":"m 452 1008 b 360 1067 435 1042 400 1067 b 179 1068 300 1067 240 1068 b 79 967 125 1068 79 1022 b 179 867 79 912 125 867 b 260 866 206 866 233 866 b 258 13 260 582 259 297 b 170 13 229 13 199 13 b 69 -88 116 13 69 -34 b 170 -188 69 -143 116 -188 b 351 -189 230 -189 291 -189 b 408 -171 372 -189 392 -183 b 459 -86 437 -157 459 -128 b 462 962 460 263 461 613 b 452 1008 462 980 458 995 z "},"a":{"ha":694,"x_min":0,"x_max":0,"o":"m 648 117 b 560 655 669 294 690 539 b 14 516 385 811 80 747 b 208 462 -22 391 173 338 b 440 477 240 573 412 552 b 444 464 442 473 442 468 b 438 464 442 464 440 464 b 50 125 265 438 56 324 b 277 -100 46 -7 160 -80 b 554 -53 372 -115 468 -93 b 604 -28 573 -49 590 -41 b 616 -21 608 -26 612 -24 b 648 117 674 12 675 73 z m 447 119 b 356 96 418 107 387 98 b 270 164 299 93 228 100 b 461 265 310 226 390 251 b 447 119 458 215 453 165 z "},"b":{"ha":626,"x_min":0,"x_max":0,"o":"m 534 482 b 235 557 448 578 334 595 b 238 863 237 659 238 761 b 37 863 239 992 37 992 b 33 422 36 716 35 569 b 45 110 32 320 20 211 b 500 0 100 -117 344 -166 b 534 482 622 129 659 344 z m 406 235 b 244 141 394 182 324 51 b 232 285 225 162 231 248 b 406 235 294 415 437 372 z "},"c":{"ha":579,"x_min":0,"x_max":0,"o":"m 378 165 b 215 254 306 57 222 167 b 362 397 210 318 276 467 b 504 539 461 315 604 457 b 16 231 273 728 -11 498 b 222 -68 28 107 98 -26 b 552 63 353 -112 479 -46 b 378 165 624 171 450 272 z "},"d":{"ha":626,"x_min":0,"x_max":0,"o":"m 592 402 b 588 863 590 556 589 709 b 387 863 588 992 386 992 b 392 556 387 761 390 659 b 91 482 293 596 177 579 b 119 6 -31 346 -2 134 b 567 67 257 -143 490 -137 b 592 402 607 172 594 292 z m 342 126 b 218 238 270 100 231 173 b 393 285 193 369 330 417 b 393 272 393 280 393 276 b 342 126 391 209 409 151 z "},"e":{"ha":628,"x_min":0,"x_max":0,"o":"m 434 134 b 255 140 377 94 303 84 b 604 428 431 140 656 220 b 103 503 545 660 242 651 b 58 75 -2 390 -8 209 b 536 -40 147 -104 374 -153 b 434 134 641 34 541 209 z m 379 408 b 239 340 468 370 303 343 b 379 408 267 393 317 435 z "},"f":{"ha":564,"x_min":0,"x_max":0,"o":"m 405 547 b 547 689 487 447 629 590 b 79 649 420 845 184 814 b 24 342 19 556 9 450 b 65 -163 47 177 160 -4 b 239 -265 -2 -274 172 -376 b 295 71 302 -159 314 -50 b 276 157 290 100 283 129 b 373 161 308 158 341 160 b 474 262 428 163 474 206 b 373 362 474 314 428 364 b 226 356 324 360 275 358 b 229 478 219 397 215 438 b 405 547 252 549 337 630 z "},"g":{"ha":619,"x_min":0,"x_max":0,"o":"m 535 125 b 597 356 574 197 594 281 b 252 798 605 586 465 734 b 182 611 134 834 80 659 b 37 421 116 567 61 495 b 287 -42 -26 230 47 -40 b 352 -34 310 -42 331 -39 b 359 -212 358 -93 363 -153 b 313 -344 357 -246 351 -329 b 262 -323 291 -353 274 -346 b 285 -269 247 -293 258 -291 b 143 -127 386 -188 243 -47 b 344 -546 -51 -281 102 -596 b 543 91 625 -488 551 -110 b 535 125 542 103 539 114 z m 369 240 b 218 232 332 162 247 122 b 317 442 210 264 257 506 b 395 412 341 416 369 408 b 369 240 406 360 398 302 z "},"h":{"ha":632,"x_min":0,"x_max":0,"o":"m 344 567 b 240 537 304 564 270 553 b 246 878 241 651 243 764 b 45 878 250 1007 48 1007 b 35 37 37 597 34 317 b 236 37 35 -93 230 -92 b 347 365 239 99 251 358 b 404 48 441 373 407 97 b 605 48 396 -81 597 -81 b 344 567 617 241 628 589 z "},"i":{"ha":268,"x_min":0,"x_max":0,"o":"m 34 474 b 32 44 34 331 33 188 b 233 44 31 -85 232 -85 b 236 474 234 188 235 331 b 34 474 237 604 35 604 z m 222 839 b 164 866 206 854 187 863 b 100 854 143 869 119 866 b 80 839 93 849 87 844 b 54 794 67 826 59 811 b 26 728 45 772 36 750 b 36 650 17 705 25 670 b 97 604 49 629 73 609 b 174 614 122 598 151 599 b 195 630 181 619 188 625 b 219 672 206 642 215 656 b 250 743 237 690 249 714 b 252 767 251 751 251 759 b 222 839 253 791 240 822 z "},"j":{"ha":269,"x_min":0,"x_max":0,"o":"m 240 839 b 182 866 224 854 205 863 b 118 854 161 869 137 866 b 98 839 111 849 105 844 b 72 794 85 826 77 811 b 44 728 63 772 53 750 b 54 650 35 705 43 670 b 115 604 67 629 91 609 b 192 614 140 598 169 599 b 213 630 199 619 206 625 b 237 672 224 642 233 656 b 268 743 255 690 267 714 b 270 767 269 751 269 759 b 240 839 271 791 258 822 z m 30 473 b 34 -68 31 294 42 111 b -26 -288 31 -130 33 -246 b -124 -255 -68 -317 -116 -308 b -318 -309 -144 -128 -338 -182 b 111 -435 -285 -521 -36 -565 b 232 -123 199 -357 224 -236 b 231 473 248 73 232 276 b 30 473 230 603 29 603 z "},"k":{"ha":635,"x_min":0,"x_max":0,"o":"m 525 164 b 518 166 521 165 520 166 b 514 168 517 167 516 167 b 487 182 505 172 496 177 b 427 227 465 195 445 209 b 355 343 394 260 370 299 b 530 435 398 394 455 431 b 530 637 659 444 660 645 b 238 508 407 629 312 580 b 242 874 239 630 241 752 b 40 874 243 1003 41 1003 b 33 67 38 605 36 336 b 231 40 32 -45 206 -73 b 252 124 237 67 244 95 b 471 -30 309 55 384 2 b 595 40 522 -49 582 -9 b 525 164 611 96 576 145 z "},"l":{"ha":335,"x_min":0,"x_max":0,"o":"m 284 100 b 234 403 198 143 233 324 b 245 854 238 553 241 704 b 44 854 249 984 48 984 b 29 255 38 655 32 455 b 183 -74 27 122 53 -9 b 284 100 298 -131 401 43 z "},"m":{"ha":844,"x_min":0,"x_max":0,"o":"m 596 554 b 492 529 554 554 520 544 b 302 653 452 596 390 645 b 45 23 -29 681 16 223 b 239 77 63 -105 257 -50 b 310 437 234 114 194 518 b 336 330 347 411 336 369 b 334 259 336 306 335 283 b 334 237 334 250 324 206 b 528 184 296 113 489 61 b 531 195 529 187 530 191 b 545 276 538 220 543 248 b 583 343 552 307 562 334 b 616 249 626 361 615 283 b 608 26 619 174 616 100 b 810 26 595 -102 797 -102 b 596 554 827 200 860 557 z "},"n":{"ha":604,"x_min":0,"x_max":0,"o":"m 307 575 b 19 40 28 574 13 245 b 220 40 23 -89 225 -90 b 307 373 218 114 192 371 b 377 18 418 376 379 88 b 578 18 371 -112 573 -111 b 307 575 586 226 603 576 z "},"o":{"ha":575,"x_min":0,"x_max":0,"o":"m 491 553 b 359 588 462 612 402 614 b 340 590 353 589 347 590 b 119 -2 45 603 -102 188 b 492 69 242 -108 408 -59 b 491 553 589 217 566 402 z m 339 209 b 236 168 320 164 276 110 b 340 389 176 255 235 394 b 342 389 341 389 341 389 b 339 209 360 330 364 267 z "},"p":{"ha":661,"x_min":0,"x_max":0,"o":"m 555 510 b 226 571 463 597 340 604 b 35 527 186 654 34 639 b 38 -339 36 238 37 -51 b 239 -339 39 -469 240 -469 b 238 -45 239 -241 239 -143 b 426 -57 298 -67 362 -74 b 638 193 540 -27 616 82 b 555 510 659 303 639 430 z m 440 228 b 237 190 411 107 311 126 b 237 365 237 248 237 306 b 254 370 243 366 248 368 b 440 228 374 423 470 356 z "},"q":{"ha":678,"x_min":0,"x_max":0,"o":"m 600 -308 b 575 -317 592 -313 584 -316 b 611 -201 592 -285 605 -246 b 648 473 641 19 643 251 b 525 571 650 540 582 581 b 456 630 516 599 495 622 b 59 32 150 694 -90 298 b 356 -26 124 -83 251 -93 b 427 35 382 -9 406 12 b 386 -212 428 -45 429 -162 b 359 -193 376 -204 367 -198 b 233 -349 255 -136 162 -276 b 329 -436 240 -393 272 -433 b 359 -437 339 -437 349 -437 b 465 -500 392 -461 426 -485 b 702 -482 542 -530 632 -531 b 600 -308 807 -408 707 -233 z m 338 160 b 227 199 290 98 240 126 b 403 436 211 291 277 462 b 420 434 409 435 414 434 b 338 160 385 353 389 224 z "},"r":{"ha":626,"x_min":0,"x_max":0,"o":"m 553 614 b 220 543 433 642 310 621 b 31 497 178 624 29 609 b 38 46 33 347 36 196 b 239 46 40 -85 233 -84 b 500 420 246 194 297 467 b 553 614 626 391 680 585 z "},"s":{"ha":611,"x_min":0,"x_max":0,"o":"m 566 233 b 292 394 511 336 387 347 b 307 448 232 424 212 460 b 417 382 348 443 389 412 b 559 525 505 288 648 430 b 273 652 487 601 379 654 b 36 406 144 649 18 543 b 244 197 50 295 150 236 b 374 135 273 184 378 156 b 162 173 363 80 189 156 b 60 -1 51 241 -50 67 b 447 -59 173 -70 319 -104 b 566 233 565 -17 625 119 z "},"t":{"ha":425,"x_min":0,"x_max":0,"o":"m 272 580 b 360 578 301 579 331 578 b 360 779 490 574 490 775 b 282 781 334 780 308 780 b 84 787 276 893 106 894 b 60 787 76 787 68 787 b 60 586 -70 791 -70 590 b 68 586 62 586 65 586 b 55 225 58 465 49 344 b 233 -67 61 94 108 -10 b 334 107 350 -121 452 53 b 260 379 227 156 254 279 b 272 580 264 446 268 513 z "},"u":{"ha":601,"x_min":0,"x_max":0,"o":"m 564 500 b 362 500 552 628 370 631 b 297 139 357 403 375 207 b 240 160 275 120 250 147 b 228 227 229 174 230 209 b 239 480 220 310 228 397 b 45 533 257 607 63 661 b 259 -45 20 353 -37 -60 b 385 -4 309 -43 350 -28 b 565 58 437 -66 564 -45 b 564 500 565 204 577 355 z "},"v":{"ha":561,"x_min":0,"x_max":0,"o":"m 355 531 b 261 305 324 455 292 380 b 204 527 235 376 216 450 b 10 473 184 655 -10 600 b 178 5 36 308 94 151 b 362 30 225 -77 330 -46 b 550 477 424 179 487 328 b 355 531 600 596 405 649 z "},"w":{"ha":846,"x_min":0,"x_max":0,"o":"m 794 543 b 600 489 773 671 579 616 b 611 194 614 405 644 277 b 521 310 566 80 520 267 b 320 310 527 440 326 439 b 231 182 318 271 283 88 b 262 447 191 255 233 379 b 89 549 313 565 139 668 b 153 -31 19 386 -51 72 b 419 27 267 -88 356 -49 b 662 -31 478 -39 561 -72 b 794 543 878 57 824 365 z "},"x":{"ha":569,"x_min":0,"x_max":0,"o":"m 384 277 b 522 421 425 328 472 376 b 380 563 619 507 476 649 b 262 444 338 526 299 486 b 195 557 239 481 216 519 b 21 456 133 671 -40 570 b 136 270 56 392 95 330 b 50 81 102 211 72 148 b 244 27 9 -42 203 -95 b 272 98 252 52 262 75 b 380 -15 307 59 342 21 b 522 127 473 -105 616 37 b 384 277 473 175 427 225 z "},"y":{"ha":657,"x_min":0,"x_max":0,"o":"m 436 524 b 342 203 416 428 397 287 b 212 173 313 161 263 99 b 261 465 183 217 250 412 b 66 518 286 591 92 645 b 281 -63 26 315 -74 -107 b 385 -30 321 -59 355 -46 b 188 -231 375 -161 356 -325 b 87 -405 75 -169 -27 -342 b 526 -337 240 -490 430 -517 b 590 19 582 -231 580 -97 b 634 498 605 179 629 338 b 436 524 637 609 459 637 z "},"z":{"ha":596,"x_min":0,"x_max":0,"o":"m 483 572 b 124 572 363 572 243 572 b 124 371 -6 572 -6 371 b 320 371 189 370 254 371 b 62 160 256 280 166 210 b 113 -28 -38 111 26 -16 b 457 -72 228 -42 343 -57 b 457 130 586 -88 584 113 b 384 139 433 133 408 136 b 580 445 471 223 538 325 b 483 572 602 507 545 573 z "}," ":{"ha":471,"x_min":0,"x_max":0,"o":""},"«":{"ha":658,"x_min":0,"x_max":0,"o":"m 176 334 b 361 536 238 401 299 468 b 254 642 427 607 320 714 b 24 392 178 559 101 476 b 24 285 -6 359 -2 319 b 213 42 87 204 150 123 b 320 148 273 -35 379 73 b 176 334 272 210 224 272 z m 516 642 b 286 392 440 559 363 476 b 286 285 256 359 260 319 b 475 42 349 204 412 123 b 582 148 535 -35 641 73 b 438 334 534 210 486 272 b 623 536 500 401 561 468 b 516 642 689 607 582 714 z "},"­":{"ha":0,"x_min":0,"x_max":0,"o":""},"»":{"ha":668,"x_min":0,"x_max":0,"o":"m 376 392 b 138 642 296 476 217 559 b 31 536 71 713 -36 606 b 224 333 95 468 160 400 b 75 133 174 266 125 200 b 205 57 17 55 148 -20 b 388 301 266 138 327 219 b 376 392 408 327 397 370 z m 639 392 b 401 642 560 476 480 559 b 294 536 334 713 227 606 b 487 333 358 468 423 400 b 338 133 438 266 388 200 b 469 57 280 55 411 -20 b 651 301 529 138 590 219 b 639 392 671 327 660 370 z "},"‘":{"ha":251,"x_min":0,"x_max":0,"o":"m 208 835 b 208 941 234 866 239 910 b 101 941 182 968 127 973 b 52 687 50 877 -27 764 b 206 715 99 641 177 659 b 197 820 226 753 220 792 b 208 835 201 825 204 830 z m 172 770 b 172 770 173 765 172 766 z "},"’":{"ha":250,"x_min":0,"x_max":0,"o":"m 197 937 b 43 909 150 983 72 965 b 51 804 22 871 29 832 b 41 789 48 799 44 794 b 41 683 15 758 10 714 b 147 683 67 656 122 651 b 197 937 199 747 275 860 z m 77 854 b 77 854 76 859 76 858 z "},"‚":{"ha":238,"x_min":0,"x_max":0,"o":"m 186 169 b 31 141 139 216 61 197 b 40 36 11 103 18 64 b 30 22 37 31 33 26 b 30 -85 4 -10 -1 -54 b 136 -85 56 -112 111 -117 b 186 169 188 -21 264 92 z m 66 86 b 66 86 65 91 65 91 z "},"“":{"ha":351,"x_min":0,"x_max":0,"o":"m 309 835 b 309 941 334 866 340 910 b 205 944 283 967 231 973 b 101 941 177 968 126 972 b 52 687 50 877 -27 764 b 167 676 84 655 132 655 b 307 715 215 645 280 665 b 298 820 327 753 320 792 b 309 835 302 825 305 830 z m 272 770 b 272 770 274 765 273 766 z "},"”":{"ha":351,"x_min":0,"x_max":0,"o":"m 298 937 b 182 948 265 969 218 969 b 43 909 135 979 69 959 b 51 804 22 871 29 832 b 41 789 48 799 45 794 b 41 683 15 758 10 714 b 145 680 66 657 118 651 b 248 683 172 656 223 652 b 298 937 300 747 376 860 z m 77 854 b 77 854 76 859 76 858 z "},"„":{"ha":339,"x_min":0,"x_max":0,"o":"m 287 169 b 171 181 254 201 207 202 b 31 141 124 211 58 191 b 40 36 11 103 18 64 b 30 22 37 32 33 26 b 30 -85 4 -10 -1 -54 b 134 -88 55 -111 107 -116 b 237 -85 161 -112 212 -116 b 287 169 289 -21 365 92 z m 66 86 b 66 86 65 91 65 91 z "},"‹":{"ha":396,"x_min":0,"x_max":0,"o":"m 254 642 b 24 392 178 559 101 476 b 24 285 -6 359 -2 319 b 213 42 87 204 150 123 b 320 148 273 -35 379 73 b 176 334 272 210 224 272 b 361 536 238 401 299 468 b 254 642 427 607 320 714 z "},"›":{"ha":404,"x_min":0,"x_max":0,"o":"m 376 392 b 138 642 296 476 217 559 b 31 536 71 713 -36 606 b 224 333 95 468 160 400 b 75 133 174 266 125 200 b 205 57 17 55 148 -20 b 388 301 266 138 327 219 b 376 392 408 327 397 370 z "}}}
